<svg xmlns="http://www.w3.org/2000/svg" viewBox="0 0 32 32" shape-rendering="crispEdges">
  <rect width="32" height="32" rx="5" fill="#11162f"/>
  <path fill="#ffe39a" d="M22 4h3v3h2v7h-2v3h-3v2h-6v-2h4v-2h3V8h-3V5h2z"/>
  <path fill="#38283a" d="M6 13h4v-3h3v3h6v-3h3v3h3v13H6z"/>
  <path fill="#f2a23a" d="M8 14h4v-2h1v3h6v-3h1v2h3v10H8z"/>
  <path fill="#fff4d6" d="M11 19h9v4h-9z"/>
  <path fill="#38283a" d="M10 17h2v2h-2zm10 0h2v2h-2zm-5 3h2v2h-2z"/>
  <path fill="#e65a4f" d="M5 25h22v3H5z"/>
</svg>
